{"title":"The Taking of Pelham 123 (2009) BRRip H264 AAC-MS","uid":5665750,"size":1594483241,"categoryP":"video","categoryS":"hd___movies","magnet":"?xt=urn:btih:a24d1ebd585144621f75f939b75688359f1631e0&amp;dn=The+Taking+of+Pelham+123+%282009%29+BRRip+H264+AAC-MS&amp;tr=udp%3A%2F%2Ftracker.openbittorrent.com%3A80&amp;tr=udp%3A%2F%2Fopen.demonii.com%3A1337&amp;tr=udp%3A%2F%2Ftracker.coppersurfer.tk%3A6969&amp;tr=udp%3A%2F%2Fexodus.desync.com%3A6969","seeders":0,"leechers":1,"uploader":"rev-x","files":8,"time":1278134435,"description":"The Taking of Pelham 123 (2009) BRRip H264 AAC-MS.mp4\nFormat : MPEG-4\nFormat profile : Base Media\nCodec ID : isom\nFile size : 1.48 GiB\nDuration : 1h 45mn\nOverall bit rate : 2 006 Kbps\n\nVideo #1\nFormat : AVC\nFormat/Info : Advanced Video Codec\nFormat profile : &lt;a class=&quot;__cf_email__&quot; href=&quot;/cdn-cgi/l/email-protection&quot; data-cfemail=&quot;1f577678775f532b312e&quot;&gt;[email&amp;#160;protected]&lt;/a&gt;&lt;script cf-hash='f9e31' type=&quot;text/javascript&quot;&gt;\n/* &lt;![CDATA[ */!function(){try{var t=&quot;currentScript&quot;in document?document.currentScript:function(){for(var t=document.getElementsByTagName(&quot;script&quot;),e=t.length;e--;)if(t[e].getAttribute(&quot;cf-hash&quot;))return t[e]}();if(t&amp;&amp;t.previousSibling){var e,r,n,i,c=t.previousSibling,a=c.getAttribute(&quot;data-cfemail&quot;);if(a){for(e=&quot;&quot;,r=parseInt(a.substr(0,2),16),n=2;a.length-n;n+=2)i=parseInt(a.substr(n,2),16)^r,e+=String.fromCharCode(i);e=document.createTextNode(e),c.parentNode.replaceChild(e,c)}}}catch(u){}}();/* ]]&gt; */&lt;/script&gt;\nFormat settings, CABAC : Yes\nFormat settings, ReFrames : 3 frames\nCodec ID : avc1\nCodec ID/Info : Advanced Video Coding\nDuration : 1h 45mn\nBit rate mode : Variable\nBit rate : 1 800 Kbps\nMaximum bit rate : 13.6 Mbps\nWidth : 1 280 pixels\nHeight : 544 pixels\nDisplay aspect ratio : 2.35\nFrame rate mode : Constant\nFrame rate : 23.976 fps\nResolution : 24 bits\nColorimetry : 4:2:0\nScan type : Progressive\nBits/(Pixel*Frame) : 0.108\nStream size : 1.33 GiB (90%)\nWriting library : x264 core 98 r1649 c54c47d\n\nAudio #2\nFormat : AAC\nFormat/Info : Advanced Audio Codec\nFormat version : Version 4\nFormat profile : LC\nFormat settings, SBR : No\nCodec ID : 40\nDuration : 1h 45mn\nBit rate mode : Variable\nBit rate : 203 Kbps\nMaximum bit rate : 223 Kbps\nChannel(s) : 6 channels\nChannel positions : Front: L C R, Rear: L R, LFE\nSampling rate : 48.0 KHz\nResolution : 16 bits\nStream size : 153 MiB (10%)\n\nSCREEN: &lt;a href=&quot;\nhttp://i865.photobucket.com/albums/ab211/revisionx/Screenshot/vlcsnap-30565.jpg&quot; rel=&quot;nofollow&quot; target=&quot;_NEW&quot;&gt;\nhttp://i865.photobucket.com/albums/ab211/revisionx/Screenshot/vlcsnap-30565.jpg&lt;/a&gt;  &lt;a href=&quot;\nhttp://i865.photobucket.com/albums/ab211/revisionx/Screenshot/vlcsnap-34427.jpg&quot; rel=&quot;nofollow&quot; target=&quot;_NEW&quot;&gt;\nhttp://i865.photobucket.com/albums/ab211/revisionx/Screenshot/vlcsnap-34427.jpg&lt;/a&gt; &lt;a href=&quot;\nhttp://i865.photobucket.com/albums/ab211/revisionx/Screenshot/vlcsnap-33189.jpg&quot; rel=&quot;nofollow&quot; target=&quot;_NEW&quot;&gt;\nhttp://i865.photobucket.com/albums/ab211/revisionx/Screenshot/vlcsnap-33189.jpg&lt;/a&gt;\n","torrent":{"xt":"urn:btih:a24d1ebd585144621f75f939b75688359f1631e0","amp;dn":"The+Taking+of+Pelham+123+%282009%29+BRRip+H264+AAC-MS","amp;tr":["udp%3A%2F%2Ftracker.openbittorrent.com%3A80","udp%3A%2F%2Fopen.demonii.com%3A1337","udp%3A%2F%2Ftracker.coppersurfer.tk%3A6969","udp%3A%2F%2Fexodus.desync.com%3A6969"],"infoHash":"a24d1ebd585144621f75f939b75688359f1631e0","infoHashBuffer":{"type":"Buffer","data":[162,77,30,189,88,81,68,98,31,117,249,57,183,86,136,53,159,22,49,224]},"announce":[],"urlList":[]}}